<?xml version="1.0" encoding="utf-8" standalone="no"?>
<!DOCTYPE svg PUBLIC "-//W3C//DTD SVG 1.1//EN"
  "http://www.w3.org/Graphics/SVG/1.1/DTD/svg11.dtd">
<svg xmlns:xlink="http://www.w3.org/1999/xlink" width="604.8pt" height="352.8pt" viewBox="0 0 604.8 352.8" xmlns="http://www.w3.org/2000/svg" version="1.1"><title>해지율을 누적하면 최초 가입자의 잔존율이 된다</title><desc>자동이체 사용 집단과 미사용 집단의 가입 후 0년부터 9년까지 잔존율 비교</desc>
 <title>해지율을 누적하면 최초 가입자의 잔존율이 된다</title>
 <metadata>
  <rdf:RDF xmlns:dc="http://purl.org/dc/elements/1.1/" xmlns:cc="http://creativecommons.org/ns#" xmlns:rdf="http://www.w3.org/1999/02/22-rdf-syntax-ns#">
   <cc:Work>
    <dc:type rdf:resource="http://purl.org/dc/dcmitype/StillImage"/>
    <dc:title>해지율을 누적하면 최초 가입자의 잔존율이 된다</dc:title>
    <dc:description>자동이체 사용 집단과 미사용 집단의 가입 후 0년부터 9년까지 잔존율 비교 원문 이탈률 표를 본문의 곱셈식으로 재계산했다. 두 집단의 관측 차이이며 자동이체의 인과효과 추정치는 아니다.</dc:description>
    <dc:format>image/svg+xml</dc:format>
    <dc:creator>
     <cc:Agent>
      <dc:title>Matplotlib v3.11.1, https://matplotlib.org/</dc:title>
     </cc:Agent>
    </dc:creator>
   </cc:Work>
  </rdf:RDF>
 </metadata>
 <defs>
  <style type="text/css">*{stroke-linejoin: round; stroke-linecap: butt}</style>
 </defs>
 <g id="figure_1">
  <g id="patch_1">
   <path d="M 0 352.8
L 604.8 352.8
L 604.8 0
L 0 0
z
" style="fill: #ffffff"/>
  </g>
  <g id="axes_1">
   <g id="patch_2">
    <path d="M 78.624 282.24
L 568.512 282.24
L 568.512 31.752
L 78.624 31.752
z
" style="fill: #ffffff"/>
   </g>
   <g id="matplotlib.axis_1">
    <g id="xtick_1">
     <g id="line2d_1">
      <defs>
       <path id="mc194df8426" d="M 0 0
L 0 3.5
" style="stroke: #4d5863; stroke-width: 0.8"/>
      </defs>
      <g>
       <use xlink:href="#mc194df8426" x="100.891636" y="282.24" style="fill: #4d5863; stroke: #4d5863; stroke-width: 0.8"/>
      </g>
     </g>
     <g id="text_1">
      <!-- 0 -->
      <g style="fill: #4d5863" transform="translate(97.393824 299.44) scale(0.12 -0.12)">
       <defs>
        <path id="NanumBarunGothic-18" d="M 1869 4704
Q 2630 4704 3036 4070
Q 3443 3437 3443 2150
Q 3443 870 3033 281
Q 2624 -307 1869 -307
Q 1491 -307 1196 -163
Q 902 -19 700 281
Q 499 582 396 1046
Q 294 1510 294 2150
Q 294 3437 700 4070
Q 1107 4704 1869 4704
z
M 1869 4256
Q 851 4256 851 2138
Q 851 1082 1104 608
Q 1357 134 1869 134
Q 2374 134 2630 608
Q 2886 1082 2886 2138
Q 2886 4256 1869 4256
z
" transform="scale(0.015625)"/>
       </defs>
       <use xlink:href="#NanumBarunGothic-18"/>
      </g>
     </g>
    </g>
    <g id="xtick_2">
     <g id="line2d_2">
      <g>
       <use xlink:href="#mc194df8426" x="150.375273" y="282.24" style="fill: #4d5863; stroke: #4d5863; stroke-width: 0.8"/>
      </g>
     </g>
     <g id="text_2">
      <!-- 1 -->
      <g style="fill: #4d5863" transform="translate(146.87746 299.44) scale(0.12 -0.12)">
       <defs>
        <path id="NanumBarunGothic-19" d="M 781 3546
L 781 3942
Q 1043 4058 1276 4227
Q 1510 4397 1709 4621
L 2285 4621
L 2285 -230
L 1734 -230
L 1734 4019
L 1728 4019
Q 1510 3846 1289 3721
Q 1069 3597 845 3514
Q 781 3488 781 3546
z
" transform="scale(0.015625)"/>
       </defs>
       <use xlink:href="#NanumBarunGothic-19"/>
      </g>
     </g>
    </g>
    <g id="xtick_3">
     <g id="line2d_3">
      <g>
       <use xlink:href="#mc194df8426" x="199.858909" y="282.24" style="fill: #4d5863; stroke: #4d5863; stroke-width: 0.8"/>
      </g>
     </g>
     <g id="text_3">
      <!-- 2 -->
      <g style="fill: #4d5863" transform="translate(196.361097 299.44) scale(0.12 -0.12)">
       <defs>
        <path id="NanumBarunGothic-1a" d="M 582 3693
Q 512 3622 512 3718
L 512 4198
Q 781 4410 1101 4557
Q 1421 4704 1850 4704
Q 2547 4704 2908 4387
Q 3270 4070 3270 3418
Q 3270 3200 3200 3001
Q 3130 2803 3005 2601
Q 2880 2400 2704 2182
Q 2528 1965 2317 1709
L 1011 224
L 1011 218
L 3341 218
L 3341 -230
L 352 -230
L 352 250
L 1843 1926
Q 2093 2246 2259 2460
Q 2426 2675 2525 2838
Q 2624 3002 2665 3136
Q 2707 3270 2707 3430
Q 2707 3821 2505 4038
Q 2304 4256 1862 4256
Q 1555 4256 1235 4112
Q 915 3968 582 3693
z
" transform="scale(0.015625)"/>
       </defs>
       <use xlink:href="#NanumBarunGothic-1a"/>
      </g>
     </g>
    </g>
    <g id="xtick_4">
     <g id="line2d_4">
      <g>
       <use xlink:href="#mc194df8426" x="249.342545" y="282.24" style="fill: #4d5863; stroke: #4d5863; stroke-width: 0.8"/>
      </g>
     </g>
     <g id="text_4">
      <!-- 3 -->
      <g style="fill: #4d5863" transform="translate(245.844733 299.44) scale(0.12 -0.12)">
       <defs>
        <path id="NanumBarunGothic-1b" d="M 1837 -288
Q 1408 -282 1014 -154
Q 621 -26 378 205
L 378 666
Q 378 710 400 720
Q 422 730 454 698
Q 800 410 1136 285
Q 1472 160 1850 160
Q 2061 160 2240 227
Q 2419 294 2553 419
Q 2688 544 2765 710
Q 2842 877 2842 1082
Q 2842 2074 1651 2074
L 1478 2074
L 1478 2528
L 1555 2528
Q 1786 2534 1997 2576
Q 2208 2618 2368 2717
Q 2528 2816 2624 2989
Q 2720 3162 2720 3437
Q 2720 3866 2467 4064
Q 2214 4262 1830 4262
Q 1523 4262 1196 4140
Q 870 4019 589 3770
Q 563 3750 540 3756
Q 518 3763 518 3802
L 518 4275
Q 614 4358 748 4435
Q 883 4512 1049 4573
Q 1216 4634 1411 4672
Q 1606 4710 1818 4710
Q 2138 4710 2410 4633
Q 2682 4557 2877 4400
Q 3072 4243 3181 4009
Q 3290 3776 3290 3469
Q 3290 3245 3226 3056
Q 3162 2867 3046 2716
Q 2931 2566 2771 2464
Q 2611 2362 2419 2323
L 2419 2310
Q 2880 2208 3142 1923
Q 3405 1638 3405 1101
Q 3405 832 3305 579
Q 3206 326 3008 134
Q 2810 -58 2518 -173
Q 2227 -288 1837 -288
z
" transform="scale(0.015625)"/>
       </defs>
       <use xlink:href="#NanumBarunGothic-1b"/>
      </g>
     </g>
    </g>
    <g id="xtick_5">
     <g id="line2d_5">
      <g>
       <use xlink:href="#mc194df8426" x="298.826182" y="282.24" style="fill: #4d5863; stroke: #4d5863; stroke-width: 0.8"/>
      </g>
     </g>
     <g id="text_5">
      <!-- 4 -->
      <g style="fill: #4d5863" transform="translate(295.328369 299.44) scale(0.12 -0.12)">
       <defs>
        <path id="NanumBarunGothic-1c" d="M 134 877
L 134 1421
L 2259 4621
L 2918 4621
L 2918 1325
L 3642 1325
L 3642 877
L 2918 877
L 2918 -230
L 2374 -230
L 2374 877
L 134 877
z
M 2221 3795
L 595 1318
L 595 1312
L 2400 1312
L 2400 3782
L 2406 4141
L 2221 3795
z
" transform="scale(0.015625)"/>
       </defs>
       <use xlink:href="#NanumBarunGothic-1c"/>
      </g>
     </g>
    </g>
    <g id="xtick_6">
     <g id="line2d_6">
      <g>
       <use xlink:href="#mc194df8426" x="348.309818" y="282.24" style="fill: #4d5863; stroke: #4d5863; stroke-width: 0.8"/>
      </g>
     </g>
     <g id="text_6">
      <!-- 5 -->
      <g style="fill: #4d5863" transform="translate(344.812006 299.44) scale(0.12 -0.12)">
       <defs>
        <path id="NanumBarunGothic-1d" d="M 435 557
Q 742 352 1062 253
Q 1382 154 1747 154
Q 1997 160 2208 246
Q 2419 333 2572 480
Q 2726 627 2812 828
Q 2899 1030 2899 1274
Q 2899 1555 2793 1750
Q 2688 1946 2499 2067
Q 2310 2189 2057 2243
Q 1805 2298 1510 2298
Q 1286 2298 1030 2266
Q 774 2234 544 2182
L 678 4595
L 3187 4595
L 3187 4154
L 1139 4154
L 1043 2669
L 1056 2669
Q 1242 2688 1408 2701
Q 1574 2714 1741 2714
Q 2118 2714 2432 2621
Q 2746 2528 2973 2352
Q 3200 2176 3325 1917
Q 3450 1658 3450 1331
Q 3450 992 3331 694
Q 3213 397 2989 179
Q 2765 -38 2445 -163
Q 2125 -288 1728 -288
Q 1299 -282 966 -195
Q 634 -109 365 83
L 365 525
Q 365 563 387 572
Q 410 582 435 557
z
" transform="scale(0.015625)"/>
       </defs>
       <use xlink:href="#NanumBarunGothic-1d"/>
      </g>
     </g>
    </g>
    <g id="xtick_7">
     <g id="line2d_7">
      <g>
       <use xlink:href="#mc194df8426" x="397.793455" y="282.24" style="fill: #4d5863; stroke: #4d5863; stroke-width: 0.8"/>
      </g>
     </g>
     <g id="text_7">
      <!-- 6 -->
      <g style="fill: #4d5863" transform="translate(394.295642 299.44) scale(0.12 -0.12)">
       <defs>
        <path id="NanumBarunGothic-1e" d="M 3187 4026
Q 3008 4134 2797 4198
Q 2586 4262 2342 4262
Q 2003 4262 1734 4099
Q 1466 3936 1277 3657
Q 1088 3379 982 3014
Q 877 2650 864 2240
L 877 2240
Q 941 2381 1049 2512
Q 1158 2643 1308 2742
Q 1459 2842 1641 2899
Q 1824 2957 2035 2957
Q 2381 2957 2646 2838
Q 2912 2720 3094 2509
Q 3277 2298 3373 2010
Q 3469 1722 3469 1382
Q 3469 1005 3357 697
Q 3245 390 3037 172
Q 2829 -45 2544 -163
Q 2259 -282 1914 -282
Q 1421 -282 1113 -74
Q 806 134 633 460
Q 461 787 400 1187
Q 339 1587 339 1978
Q 339 2470 451 2960
Q 563 3450 803 3837
Q 1043 4224 1420 4467
Q 1798 4710 2330 4710
Q 2598 4710 2822 4662
Q 3046 4614 3245 4525
L 3245 4051
Q 3245 3981 3187 4026
z
M 915 1331
Q 915 1094 982 883
Q 1050 672 1181 512
Q 1312 352 1497 256
Q 1683 160 1914 160
Q 2170 160 2358 265
Q 2547 371 2668 537
Q 2790 704 2848 918
Q 2906 1133 2906 1350
Q 2906 1587 2848 1798
Q 2790 2010 2675 2166
Q 2560 2323 2381 2416
Q 2202 2509 1958 2509
Q 1702 2509 1513 2416
Q 1325 2323 1197 2160
Q 1069 1997 1001 1782
Q 934 1568 915 1331
z
" transform="scale(0.015625)"/>
       </defs>
       <use xlink:href="#NanumBarunGothic-1e"/>
      </g>
     </g>
    </g>
    <g id="xtick_8">
     <g id="line2d_8">
      <g>
       <use xlink:href="#mc194df8426" x="447.277091" y="282.24" style="fill: #4d5863; stroke: #4d5863; stroke-width: 0.8"/>
      </g>
     </g>
     <g id="text_8">
      <!-- 7 -->
      <g style="fill: #4d5863" transform="translate(443.779278 299.44) scale(0.12 -0.12)">
       <defs>
        <path id="NanumBarunGothic-1f" d="M 1478 -230
L 909 -230
L 2842 4147
L 262 4147
L 262 4595
L 3354 4595
L 3354 4064
L 1478 -230
z
" transform="scale(0.015625)"/>
       </defs>
       <use xlink:href="#NanumBarunGothic-1f"/>
      </g>
     </g>
    </g>
    <g id="xtick_9">
     <g id="line2d_9">
      <g>
       <use xlink:href="#mc194df8426" x="496.760727" y="282.24" style="fill: #4d5863; stroke: #4d5863; stroke-width: 0.8"/>
      </g>
     </g>
     <g id="text_9">
      <!-- 8 -->
      <g style="fill: #4d5863" transform="translate(493.262915 299.44) scale(0.12 -0.12)">
       <defs>
        <path id="NanumBarunGothic-20" d="M 1862 160
Q 2080 160 2275 227
Q 2470 294 2617 416
Q 2765 538 2848 714
Q 2931 890 2931 1114
Q 2931 1331 2848 1513
Q 2765 1696 2617 1830
Q 2470 1965 2275 2038
Q 2080 2112 1862 2112
Q 1638 2112 1446 2038
Q 1254 1965 1107 1830
Q 960 1696 877 1513
Q 794 1331 794 1114
Q 794 890 877 714
Q 960 538 1107 416
Q 1254 294 1446 227
Q 1638 160 1862 160
z
M 1862 2573
Q 2042 2573 2214 2630
Q 2387 2688 2521 2797
Q 2656 2906 2739 3066
Q 2822 3226 2822 3430
Q 2822 3629 2745 3789
Q 2669 3949 2537 4064
Q 2406 4179 2233 4240
Q 2061 4301 1862 4301
Q 1664 4301 1491 4240
Q 1318 4179 1187 4064
Q 1056 3949 979 3789
Q 902 3629 902 3430
Q 902 3226 985 3066
Q 1069 2906 1203 2797
Q 1338 2688 1510 2630
Q 1683 2573 1862 2573
z
M 1862 -288
Q 1453 -288 1149 -189
Q 845 -90 643 86
Q 442 262 339 505
Q 237 749 237 1030
Q 237 1498 477 1843
Q 717 2189 1235 2323
L 1235 2336
Q 832 2464 589 2742
Q 346 3021 346 3424
Q 346 3686 438 3920
Q 531 4154 720 4326
Q 909 4499 1193 4601
Q 1478 4704 1862 4704
Q 2246 4704 2531 4601
Q 2816 4499 3005 4326
Q 3194 4154 3286 3920
Q 3379 3686 3379 3424
Q 3379 3021 3136 2742
Q 2893 2464 2490 2336
L 2490 2323
Q 3008 2189 3248 1843
Q 3488 1498 3488 1030
Q 3488 749 3385 505
Q 3283 262 3081 86
Q 2880 -90 2576 -189
Q 2272 -288 1862 -288
z
" transform="scale(0.015625)"/>
       </defs>
       <use xlink:href="#NanumBarunGothic-20"/>
      </g>
     </g>
    </g>
    <g id="xtick_10">
     <g id="line2d_10">
      <g>
       <use xlink:href="#mc194df8426" x="546.244364" y="282.24" style="fill: #4d5863; stroke: #4d5863; stroke-width: 0.8"/>
      </g>
     </g>
     <g id="text_10">
      <!-- 9 -->
      <g style="fill: #4d5863" transform="translate(542.746551 299.44) scale(0.12 -0.12)">
       <defs>
        <path id="NanumBarunGothic-21" d="M 538 -96
L 538 365
Q 538 442 595 397
Q 781 288 992 227
Q 1203 166 1440 166
Q 1779 166 2048 310
Q 2317 454 2505 720
Q 2694 986 2800 1357
Q 2906 1728 2918 2182
L 2906 2182
Q 2842 2042 2730 1914
Q 2618 1786 2470 1686
Q 2323 1587 2137 1529
Q 1952 1472 1747 1472
Q 1389 1472 1120 1590
Q 851 1709 672 1917
Q 493 2125 403 2413
Q 314 2701 314 3040
Q 314 3418 426 3725
Q 538 4032 742 4253
Q 947 4474 1232 4592
Q 1517 4710 1862 4710
Q 2355 4710 2665 4502
Q 2976 4294 3149 3968
Q 3322 3642 3382 3238
Q 3443 2835 3443 2445
Q 3443 1926 3331 1436
Q 3219 947 2979 566
Q 2739 186 2361 -48
Q 1984 -282 1453 -282
Q 915 -282 538 -96
z
M 2867 3098
Q 2867 3334 2796 3545
Q 2726 3757 2598 3917
Q 2470 4077 2284 4173
Q 2099 4269 1862 4269
Q 1606 4269 1420 4163
Q 1235 4058 1113 3891
Q 992 3725 934 3507
Q 877 3290 877 3072
Q 877 2835 928 2624
Q 979 2413 1094 2256
Q 1210 2099 1389 2006
Q 1568 1914 1824 1914
Q 2080 1914 2269 2006
Q 2458 2099 2586 2262
Q 2714 2426 2781 2640
Q 2848 2854 2867 3098
z
" transform="scale(0.015625)"/>
       </defs>
       <use xlink:href="#NanumBarunGothic-21"/>
      </g>
     </g>
    </g>
    <g id="text_11">
     <!-- 가입 후 경과 연수 -->
     <g style="fill: #303a43" transform="translate(282.069563 317.24) scale(0.12 -0.12)">
      <defs>
       <path id="NanumBarunGothic-1700" d="M 154 806
Q 717 1088 1145 1446
Q 1574 1805 1872 2221
Q 2170 2637 2349 3094
Q 2528 3552 2592 4032
Q 2202 4019 1818 4016
Q 1434 4013 1050 4013
L 390 4013
L 390 4486
L 1395 4486
Q 1843 4486 2291 4486
Q 2739 4486 3194 4499
Q 3104 3181 2464 2141
Q 1824 1101 525 403
L 154 806
z
M 5696 2246
L 4691 2246
L 4691 -851
L 4141 -851
L 4141 4992
L 4691 4992
L 4691 2733
L 5696 2733
L 5696 2246
z
" transform="scale(0.015625)"/>
       <path id="NanumBarunGothic-3285" d="M 4448 4992
L 4998 4992
L 4998 1997
L 4448 1997
L 4448 4992
z
M 4998 -762
L 1338 -762
L 1338 1568
L 1882 1568
L 1882 934
L 4454 934
L 4454 1664
L 4998 1664
L 4998 -762
z
M 4454 -282
L 4454 480
L 1882 480
L 1882 -282
L 4454 -282
z
M 1888 4870
Q 2208 4870 2480 4768
Q 2752 4666 2947 4483
Q 3142 4301 3254 4041
Q 3366 3782 3366 3469
Q 3366 3149 3254 2889
Q 3142 2630 2947 2448
Q 2752 2266 2480 2163
Q 2208 2061 1888 2061
Q 1568 2061 1296 2163
Q 1024 2266 825 2448
Q 627 2630 515 2889
Q 403 3149 403 3469
Q 403 3782 515 4041
Q 627 4301 825 4483
Q 1024 4666 1296 4768
Q 1568 4870 1888 4870
z
M 1882 4403
Q 1466 4403 1210 4144
Q 954 3885 954 3462
Q 954 3251 1021 3078
Q 1088 2906 1209 2784
Q 1331 2662 1504 2595
Q 1677 2528 1882 2528
Q 2093 2528 2262 2595
Q 2432 2662 2557 2784
Q 2682 2906 2749 3078
Q 2816 3251 2816 3462
Q 2816 3885 2560 4144
Q 2304 4403 1882 4403
z
" transform="scale(0.015625)"/>
       <path id="NanumBarunGothic-8" transform="scale(0.015625)"/>
       <path id="NanumBarunGothic-41c4" d="M 3955 4954
L 3955 4493
L 1754 4493
L 1754 4954
L 3955 4954
z
M 4998 4141
L 4998 3686
L 704 3686
L 704 4141
L 4998 4141
z
M 4525 2502
Q 4525 2330 4422 2166
Q 4320 2003 4115 1881
Q 3910 1760 3593 1686
Q 3277 1613 2854 1613
Q 2426 1613 2112 1686
Q 1798 1760 1593 1881
Q 1389 2003 1289 2166
Q 1190 2330 1190 2502
Q 1190 2682 1289 2845
Q 1389 3008 1593 3129
Q 1798 3251 2112 3321
Q 2426 3392 2854 3392
Q 3283 3392 3596 3321
Q 3910 3251 4115 3129
Q 4320 3008 4422 2845
Q 4525 2682 4525 2502
z
M 134 781
L 134 1235
L 5574 1235
L 5574 781
L 3194 781
L 3194 -819
L 2630 -819
L 2630 781
L 134 781
z
M 3962 2490
Q 3962 2566 3904 2649
Q 3846 2733 3715 2800
Q 3584 2867 3373 2912
Q 3162 2957 2848 2957
Q 2541 2957 2329 2912
Q 2118 2867 1990 2800
Q 1862 2733 1804 2649
Q 1747 2566 1747 2490
Q 1747 2426 1804 2349
Q 1862 2272 1990 2205
Q 2118 2138 2329 2093
Q 2541 2048 2848 2048
Q 3162 2048 3373 2093
Q 3584 2138 3715 2205
Q 3846 2272 3904 2349
Q 3962 2426 3962 2490
z
" transform="scale(0.015625)"/>
       <path id="NanumBarunGothic-17bd" d="M 2694 4282
Q 2310 4269 1945 4265
Q 1581 4262 1197 4262
L 634 4262
L 634 4736
L 1562 4736
Q 2010 4736 2445 4736
Q 2880 4736 3334 4749
Q 3296 4224 3104 3744
Q 2912 3264 2566 2857
Q 2221 2451 1734 2137
Q 1248 1824 627 1632
L 301 2061
Q 1325 2368 1936 2925
Q 2547 3482 2694 4282
z
M 4448 4077
L 4448 4992
L 4998 4992
L 4998 1459
L 4448 1459
L 4448 2413
L 3347 2413
L 3347 2880
L 4454 2880
L 4454 3616
L 3507 3616
L 3507 4077
L 4448 4077
z
M 5050 256
Q 5050 6 4928 -205
Q 4806 -416 4563 -573
Q 4320 -730 3955 -816
Q 3590 -902 3104 -902
Q 2624 -902 2265 -812
Q 1907 -723 1664 -569
Q 1421 -416 1299 -201
Q 1178 13 1178 262
Q 1178 512 1299 726
Q 1421 941 1664 1097
Q 1907 1254 2265 1340
Q 2624 1427 3104 1427
Q 3590 1427 3955 1337
Q 4320 1248 4563 1091
Q 4806 934 4928 720
Q 5050 506 5050 256
z
M 4474 262
Q 4474 403 4394 531
Q 4314 659 4144 755
Q 3974 851 3715 908
Q 3456 966 3104 966
Q 2758 966 2502 908
Q 2246 851 2076 755
Q 1907 659 1827 531
Q 1747 403 1747 262
Q 1747 122 1827 -6
Q 1907 -134 2076 -230
Q 2246 -326 2502 -384
Q 2758 -442 3104 -442
Q 3456 -442 3715 -384
Q 3974 -326 4144 -230
Q 4314 -134 4394 -6
Q 4474 122 4474 262
z
" transform="scale(0.015625)"/>
       <path id="NanumBarunGothic-17fc" d="M 3130 1568
L 2586 1568
Q 2739 2150 2784 2777
Q 2829 3405 2842 3981
L 454 3981
L 454 4454
L 3392 4454
Q 3386 4134 3373 3750
Q 3360 3366 3331 2976
Q 3302 2586 3254 2221
Q 3206 1856 3130 1568
z
M 5696 2208
L 4768 2208
L 4768 -851
L 4237 -851
L 4237 4992
L 4768 4992
L 4768 2682
L 5696 2682
L 5696 2208
z
M 1274 454
L 70 454
L 70 928
L 1414 928
L 1414 2842
L 1952 2842
L 1952 934
Q 2419 947 2912 972
Q 3405 998 3949 1069
L 3949 627
Q 3642 582 3296 550
Q 2950 518 2598 496
Q 2246 474 1907 464
Q 1568 454 1274 454
z
" transform="scale(0.015625)"/>
       <path id="NanumBarunGothic-30f0" d="M 3002 4250
L 4448 4250
L 4448 4992
L 4998 4992
L 4998 768
L 4448 768
L 4448 2234
L 2970 2234
Q 2765 2022 2483 1904
Q 2202 1786 1856 1786
Q 1530 1786 1254 1898
Q 979 2010 774 2205
Q 570 2400 454 2669
Q 339 2938 339 3251
Q 339 3571 454 3846
Q 570 4122 774 4320
Q 979 4518 1254 4630
Q 1530 4742 1856 4742
Q 2214 4742 2505 4611
Q 2797 4480 3002 4250
z
M 3258 2688
L 4454 2688
L 4454 3802
L 3270 3802
Q 3366 3552 3366 3251
Q 3366 2957 3258 2688
z
M 5126 -736
L 1350 -736
L 1350 1075
L 1907 1075
L 1907 -256
L 5126 -256
L 5126 -736
z
M 928 3251
Q 928 3040 995 2857
Q 1062 2675 1187 2547
Q 1312 2419 1485 2345
Q 1658 2272 1869 2272
Q 2080 2272 2253 2345
Q 2426 2419 2550 2547
Q 2675 2675 2745 2857
Q 2816 3040 2816 3251
Q 2816 3475 2745 3660
Q 2675 3846 2550 3980
Q 2426 4115 2253 4188
Q 2080 4262 1869 4262
Q 1658 4262 1485 4188
Q 1312 4115 1187 3980
Q 1062 3846 995 3660
Q 928 3475 928 3251
z
" transform="scale(0.015625)"/>
       <path id="NanumBarunGothic-2d18" d="M 3283 4890
Q 3296 4704 3254 4518
Q 3213 4333 3136 4154
Q 3270 3936 3500 3737
Q 3731 3539 4019 3379
Q 4307 3219 4627 3100
Q 4947 2982 5254 2918
L 4954 2464
Q 4314 2611 3763 2940
Q 3213 3270 2842 3686
Q 2662 3456 2428 3254
Q 2195 3053 1926 2889
Q 1658 2726 1366 2601
Q 1075 2477 787 2400
L 486 2842
Q 960 2957 1366 3161
Q 1773 3366 2070 3635
Q 2368 3904 2534 4224
Q 2701 4544 2694 4890
L 3283 4890
z
M 134 1299
L 134 1766
L 5574 1766
L 5574 1299
L 3194 1299
L 3194 -819
L 2630 -819
L 2630 1299
L 134 1299
z
" transform="scale(0.015625)"/>
      </defs>
      <use xlink:href="#NanumBarunGothic-1700"/>
      <use xlink:href="#NanumBarunGothic-3285" transform="translate(89.203125 0)"/>
      <use xlink:href="#NanumBarunGothic-8" transform="translate(178.40625 0)"/>
      <use xlink:href="#NanumBarunGothic-41c4" transform="translate(200.8125 0)"/>
      <use xlink:href="#NanumBarunGothic-8" transform="translate(290.015625 0)"/>
      <use xlink:href="#NanumBarunGothic-17bd" transform="translate(312.421875 0)"/>
      <use xlink:href="#NanumBarunGothic-17fc" transform="translate(401.625 0)"/>
      <use xlink:href="#NanumBarunGothic-8" transform="translate(490.828125 0)"/>
      <use xlink:href="#NanumBarunGothic-30f0" transform="translate(513.234375 0)"/>
      <use xlink:href="#NanumBarunGothic-2d18" transform="translate(602.4375 0)"/>
     </g>
    </g>
   </g>
   <g id="matplotlib.axis_2">
    <g id="ytick_1">
     <g id="line2d_11">
      <path d="M 78.624 282.24
L 568.512 282.24
" clip-path="url(#p72b0a17b93)" style="fill: none; stroke: #b0b0b0; stroke-opacity: 0.16; stroke-width: 0.8; stroke-linecap: square"/>
     </g>
     <g id="line2d_12">
      <defs>
       <path id="m1e4b9cc6eb" d="M 0 0
L -3.5 0
" style="stroke: #4d5863; stroke-width: 0.8"/>
      </defs>
      <g>
       <use xlink:href="#m1e4b9cc6eb" x="78.624" y="282.24" style="fill: #4d5863; stroke: #4d5863; stroke-width: 0.8"/>
      </g>
     </g>
     <g id="text_12">
      <!-- 0 -->
      <g style="fill: #4d5863" transform="translate(64.628375 287.34) scale(0.12 -0.12)">
       <use xlink:href="#NanumBarunGothic-18"/>
      </g>
     </g>
    </g>
    <g id="ytick_2">
     <g id="line2d_13">
      <path d="M 78.624 234.528
L 568.512 234.528
" clip-path="url(#p72b0a17b93)" style="fill: none; stroke: #b0b0b0; stroke-opacity: 0.16; stroke-width: 0.8; stroke-linecap: square"/>
     </g>
     <g id="line2d_14">
      <g>
       <use xlink:href="#m1e4b9cc6eb" x="78.624" y="234.528" style="fill: #4d5863; stroke: #4d5863; stroke-width: 0.8"/>
      </g>
     </g>
     <g id="text_13">
      <!-- 20 -->
      <g style="fill: #4d5863" transform="translate(57.63275 239.628) scale(0.12 -0.12)">
       <use xlink:href="#NanumBarunGothic-1a"/>
       <use xlink:href="#NanumBarunGothic-18" transform="translate(58.296875 0)"/>
      </g>
     </g>
    </g>
    <g id="ytick_3">
     <g id="line2d_15">
      <path d="M 78.624 186.816
L 568.512 186.816
" clip-path="url(#p72b0a17b93)" style="fill: none; stroke: #b0b0b0; stroke-opacity: 0.16; stroke-width: 0.8; stroke-linecap: square"/>
     </g>
     <g id="line2d_16">
      <g>
       <use xlink:href="#m1e4b9cc6eb" x="78.624" y="186.816" style="fill: #4d5863; stroke: #4d5863; stroke-width: 0.8"/>
      </g>
     </g>
     <g id="text_14">
      <!-- 40 -->
      <g style="fill: #4d5863" transform="translate(57.63275 191.916) scale(0.12 -0.12)">
       <use xlink:href="#NanumBarunGothic-1c"/>
       <use xlink:href="#NanumBarunGothic-18" transform="translate(58.296875 0)"/>
      </g>
     </g>
    </g>
    <g id="ytick_4">
     <g id="line2d_17">
      <path d="M 78.624 139.104
L 568.512 139.104
" clip-path="url(#p72b0a17b93)" style="fill: none; stroke: #b0b0b0; stroke-opacity: 0.16; stroke-width: 0.8; stroke-linecap: square"/>
     </g>
     <g id="line2d_18">
      <g>
       <use xlink:href="#m1e4b9cc6eb" x="78.624" y="139.104" style="fill: #4d5863; stroke: #4d5863; stroke-width: 0.8"/>
      </g>
     </g>
     <g id="text_15">
      <!-- 60 -->
      <g style="fill: #4d5863" transform="translate(57.63275 144.204) scale(0.12 -0.12)">
       <use xlink:href="#NanumBarunGothic-1e"/>
       <use xlink:href="#NanumBarunGothic-18" transform="translate(58.296875 0)"/>
      </g>
     </g>
    </g>
    <g id="ytick_5">
     <g id="line2d_19">
      <path d="M 78.624 91.392
L 568.512 91.392
" clip-path="url(#p72b0a17b93)" style="fill: none; stroke: #b0b0b0; stroke-opacity: 0.16; stroke-width: 0.8; stroke-linecap: square"/>
     </g>
     <g id="line2d_20">
      <g>
       <use xlink:href="#m1e4b9cc6eb" x="78.624" y="91.392" style="fill: #4d5863; stroke: #4d5863; stroke-width: 0.8"/>
      </g>
     </g>
     <g id="text_16">
      <!-- 80 -->
      <g style="fill: #4d5863" transform="translate(57.63275 96.492) scale(0.12 -0.12)">
       <use xlink:href="#NanumBarunGothic-20"/>
       <use xlink:href="#NanumBarunGothic-18" transform="translate(58.296875 0)"/>
      </g>
     </g>
    </g>
    <g id="ytick_6">
     <g id="line2d_21">
      <path d="M 78.624 43.68
L 568.512 43.68
" clip-path="url(#p72b0a17b93)" style="fill: none; stroke: #b0b0b0; stroke-opacity: 0.16; stroke-width: 0.8; stroke-linecap: square"/>
     </g>
     <g id="line2d_22">
      <g>
       <use xlink:href="#m1e4b9cc6eb" x="78.624" y="43.68" style="fill: #4d5863; stroke: #4d5863; stroke-width: 0.8"/>
      </g>
     </g>
     <g id="text_17">
      <!-- 100 -->
      <g style="fill: #4d5863" transform="translate(50.637125 48.78) scale(0.12 -0.12)">
       <use xlink:href="#NanumBarunGothic-19"/>
       <use xlink:href="#NanumBarunGothic-18" transform="translate(58.296875 0)"/>
       <use xlink:href="#NanumBarunGothic-18" transform="translate(116.59375 0)"/>
      </g>
     </g>
    </g>
    <g id="text_18">
     <!-- 최초 가입자 중 잔존 비율 (%) -->
     <g style="fill: #303a43" transform="translate(43.037125 227.943187) rotate(-90) scale(0.12 -0.12)">
      <defs>
       <path id="NanumBarunGothic-385c" d="M 5152 -851
L 4602 -851
L 4602 4992
L 5152 4992
L 5152 -851
z
M 230 704
L 1363 704
Q 1523 704 1696 704
Q 1869 704 2054 710
L 2054 1773
L 2618 1773
L 2618 730
Q 3066 749 3504 781
Q 3942 813 4294 864
L 4294 410
Q 3987 365 3619 333
Q 3251 301 2864 278
Q 2477 256 2093 243
Q 1709 230 1370 230
L 230 230
L 230 704
z
M 1293 4339
L 1293 4819
L 3059 4819
L 3059 4339
L 1293 4339
z
M 3552 3942
Q 3526 3616 3350 3312
Q 3174 3008 2886 2733
Q 3162 2534 3466 2380
Q 3770 2227 4096 2106
L 3782 1696
Q 3450 1843 3130 2022
Q 2810 2202 2509 2413
Q 2118 2112 1657 1891
Q 1197 1670 755 1549
L 397 1965
Q 781 2048 1142 2195
Q 1504 2342 1824 2540
Q 2144 2739 2403 2976
Q 2662 3213 2835 3482
Q 2470 3469 2118 3465
Q 1766 3462 1414 3462
L 768 3462
L 768 3930
L 1837 3930
Q 2253 3930 2675 3930
Q 3098 3930 3552 3942
z
" transform="scale(0.015625)"/>
       <path id="NanumBarunGothic-3808" d="M 3846 4813
L 3846 4346
L 1683 4346
L 1683 4813
L 3846 4813
z
M 5574 -38
L 134 -38
L 134 429
L 2637 429
L 2637 1562
L 3206 1562
L 3206 429
L 5574 429
L 5574 -38
z
M 3539 2637
Q 3898 2413 4317 2221
Q 4736 2029 5216 1882
L 4915 1446
Q 4416 1638 3971 1862
Q 3526 2086 3130 2355
Q 2669 2061 2089 1824
Q 1510 1587 832 1402
L 589 1850
Q 1203 2010 1680 2186
Q 2157 2362 2534 2560
Q 2912 2758 3197 2976
Q 3482 3194 3712 3443
Q 3347 3424 2995 3421
Q 2643 3418 2285 3418
L 1011 3418
L 1011 3891
L 2803 3891
Q 3219 3891 3641 3891
Q 4064 3891 4512 3904
Q 4397 3552 4150 3235
Q 3904 2918 3539 2637
z
" transform="scale(0.015625)"/>
       <path id="NanumBarunGothic-3290" d="M 5696 2253
L 4691 2253
L 4691 -851
L 4141 -851
L 4141 4992
L 4691 4992
L 4691 2739
L 5696 2739
L 5696 2253
z
M 2426 2477
Q 2701 2054 3065 1651
Q 3430 1248 3859 941
L 3450 544
Q 3066 838 2742 1209
Q 2419 1581 2138 2003
Q 1786 1485 1344 1062
Q 902 640 403 352
L 13 723
Q 525 998 941 1408
Q 1357 1818 1661 2272
Q 1965 2726 2147 3187
Q 2330 3648 2368 4032
Q 2003 4019 1654 4016
Q 1306 4013 947 4013
L 346 4013
L 346 4480
L 1312 4480
Q 1722 4480 2144 4480
Q 2566 4480 3021 4493
Q 3002 3974 2848 3465
Q 2694 2957 2426 2477
z
" transform="scale(0.015625)"/>
       <path id="NanumBarunGothic-3411" d="M 3526 3680
Q 3910 3475 4352 3328
Q 4794 3181 5248 3091
L 4992 2656
Q 4768 2707 4518 2784
Q 4269 2861 4019 2960
Q 3770 3059 3533 3174
Q 3296 3290 3098 3418
Q 2579 3130 1987 2938
Q 1395 2746 806 2662
L 544 3085
Q 1082 3162 1552 3296
Q 2022 3430 2416 3603
Q 2810 3776 3114 3977
Q 3418 4179 3622 4384
Q 3283 4371 2953 4368
Q 2624 4365 2278 4365
L 992 4365
L 992 4819
L 2752 4819
Q 3155 4819 3561 4819
Q 3968 4819 4410 4832
Q 4486 4838 4512 4784
Q 4538 4730 4506 4672
Q 4352 4397 4102 4150
Q 3853 3904 3526 3680
z
M 2579 1229
L 2579 1869
L 70 1869
L 70 2342
L 5638 2342
L 5638 1869
L 3149 1869
L 3149 1229
Q 4000 1184 4425 893
Q 4851 602 4851 179
Q 4851 -45 4726 -243
Q 4602 -442 4352 -589
Q 4102 -736 3731 -819
Q 3360 -902 2874 -902
Q 2381 -902 2009 -819
Q 1638 -736 1388 -589
Q 1139 -442 1011 -243
Q 883 -45 883 179
Q 883 602 1308 890
Q 1734 1178 2579 1229
z
M 4256 179
Q 4256 288 4189 400
Q 4122 512 3958 601
Q 3795 691 3529 745
Q 3264 800 2874 800
Q 2477 800 2211 745
Q 1946 691 1782 601
Q 1619 512 1552 400
Q 1485 288 1485 179
Q 1485 70 1552 -38
Q 1619 -147 1782 -236
Q 1946 -326 2211 -384
Q 2477 -442 2874 -442
Q 3264 -442 3529 -384
Q 3795 -326 3958 -236
Q 4122 -147 4189 -38
Q 4256 70 4256 179
z
" transform="scale(0.015625)"/>
       <path id="NanumBarunGothic-3294" d="M 2566 3053
Q 2694 2899 2854 2755
Q 3014 2611 3187 2480
Q 3360 2349 3539 2240
Q 3718 2131 3885 2048
L 3533 1638
Q 3194 1824 2861 2089
Q 2528 2355 2253 2669
Q 1882 2272 1421 1968
Q 960 1664 454 1434
L 102 1843
Q 621 2054 1033 2329
Q 1446 2605 1747 2909
Q 2048 3213 2233 3536
Q 2419 3859 2490 4173
Q 2131 4160 1782 4157
Q 1434 4154 1082 4154
L 486 4154
L 486 4627
L 1491 4627
Q 1901 4627 2317 4627
Q 2733 4627 3187 4640
Q 3130 4179 2970 3785
Q 2810 3392 2566 3053
z
M 5645 2778
L 4723 2778
L 4723 640
L 4173 640
L 4173 4992
L 4723 4992
L 4723 3264
L 5645 3264
L 5645 2778
z
M 4858 -736
L 1203 -736
L 1203 890
L 1760 890
L 1760 -256
L 4858 -256
L 4858 -736
z
" transform="scale(0.015625)"/>
       <path id="NanumBarunGothic-3374" d="M 3520 3584
Q 3910 3360 4364 3206
Q 4819 3053 5280 2950
L 4992 2490
Q 4762 2547 4512 2630
Q 4262 2714 4012 2819
Q 3763 2925 3529 3046
Q 3296 3168 3098 3302
Q 2566 2989 1968 2781
Q 1370 2573 787 2502
L 525 2944
Q 1043 3014 1520 3158
Q 1997 3302 2406 3494
Q 2816 3686 3133 3910
Q 3450 4134 3654 4371
Q 3315 4358 2985 4358
Q 2656 4358 2310 4358
L 973 4358
L 973 4819
L 2784 4819
Q 3187 4819 3593 4819
Q 4000 4819 4442 4832
Q 4518 4838 4544 4784
Q 4570 4730 4538 4672
Q 4371 4365 4112 4093
Q 3853 3821 3520 3584
z
M 3200 2720
L 3200 1862
L 5638 1862
L 5638 1389
L 70 1389
L 70 1862
L 2630 1862
L 2630 2720
L 3200 2720
z
M 4870 -762
L 998 -762
L 998 941
L 1549 941
L 1549 -282
L 4870 -282
L 4870 -762
z
" transform="scale(0.015625)"/>
       <path id="NanumBarunGothic-2944" d="M 4448 4992
L 4998 4992
L 4998 -851
L 4448 -851
L 4448 4992
z
M 493 742
L 493 4550
L 1056 4550
L 1056 3104
L 2675 3104
L 2675 4550
L 3219 4550
L 3219 742
L 493 742
z
M 2682 2637
L 1050 2637
L 1050 1210
L 2682 1210
L 2682 2637
z
" transform="scale(0.015625)"/>
       <path id="NanumBarunGothic-3228" d="M 4800 4000
Q 4800 3539 4317 3260
Q 3834 2982 2861 2982
Q 1888 2982 1405 3260
Q 922 3539 922 4000
Q 922 4224 1043 4416
Q 1165 4608 1408 4745
Q 1651 4883 2016 4963
Q 2381 5043 2861 5043
Q 3341 5043 3705 4966
Q 4070 4890 4313 4749
Q 4557 4608 4678 4419
Q 4800 4230 4800 4000
z
M 4198 3974
Q 4198 4224 3878 4409
Q 3558 4595 2861 4595
Q 2157 4595 1837 4409
Q 1517 4224 1517 3974
Q 1517 3750 1837 3587
Q 2157 3424 2861 3424
Q 3558 3424 3878 3587
Q 4198 3750 4198 3974
z
M 3507 1549
L 3507 2234
L 2195 2234
L 2195 1549
L 3507 1549
z
M 1638 1549
L 1638 2227
L 70 2227
L 70 2669
L 5638 2669
L 5638 2227
L 4064 2227
L 4064 1549
L 4742 1549
L 4742 141
L 1510 141
L 1510 -397
L 4896 -397
L 4896 -851
L 966 -851
L 966 576
L 4198 576
L 4198 1107
L 966 1107
L 966 1549
L 1638 1549
z
" transform="scale(0.015625)"/>
       <path id="NanumBarunGothic-10" d="M 973 2029
Q 973 2438 1069 2851
Q 1165 3264 1334 3651
Q 1504 4038 1734 4387
Q 1965 4736 2234 5018
L 2656 5018
Q 2112 4262 1840 3504
Q 1568 2746 1568 2029
Q 1568 1312 1840 553
Q 2112 -205 2656 -960
L 2234 -960
Q 1965 -678 1734 -329
Q 1504 19 1334 406
Q 1165 794 1069 1206
Q 973 1619 973 2029
z
" transform="scale(0.015625)"/>
       <path id="NanumBarunGothic-d" d="M 3878 4698
L 4422 4698
L 1741 -320
L 1197 -320
L 3878 4698
z
M 1523 4659
Q 1779 4659 1974 4553
Q 2170 4448 2301 4272
Q 2432 4096 2496 3869
Q 2560 3642 2560 3392
Q 2560 3142 2496 2915
Q 2432 2688 2301 2512
Q 2170 2336 1974 2233
Q 1779 2131 1523 2131
Q 1261 2131 1069 2233
Q 877 2336 745 2512
Q 614 2688 550 2915
Q 486 3142 486 3392
Q 486 3642 550 3869
Q 614 4096 745 4272
Q 877 4448 1069 4553
Q 1261 4659 1523 4659
z
M 1523 4282
Q 1363 4282 1257 4202
Q 1152 4122 1091 3997
Q 1030 3872 1004 3709
Q 979 3546 979 3386
Q 979 3226 1004 3069
Q 1030 2912 1091 2787
Q 1152 2662 1257 2585
Q 1363 2509 1523 2509
Q 1683 2509 1785 2585
Q 1888 2662 1952 2787
Q 2016 2912 2041 3069
Q 2067 3226 2067 3386
Q 2067 3546 2041 3709
Q 2016 3872 1952 3997
Q 1888 4122 1785 4202
Q 1683 4282 1523 4282
z
M 4179 2266
Q 4435 2266 4630 2160
Q 4826 2054 4957 1878
Q 5088 1702 5152 1475
Q 5216 1248 5216 998
Q 5216 749 5152 521
Q 5088 294 4957 118
Q 4826 -58 4630 -160
Q 4435 -262 4179 -262
Q 3917 -262 3725 -160
Q 3533 -58 3401 118
Q 3270 294 3206 521
Q 3142 749 3142 998
Q 3142 1248 3206 1475
Q 3270 1702 3401 1878
Q 3533 2054 3725 2160
Q 3917 2266 4179 2266
z
M 4179 1888
Q 4019 1888 3913 1808
Q 3808 1728 3747 1603
Q 3686 1478 3660 1315
Q 3635 1152 3635 992
Q 3635 832 3660 675
Q 3686 518 3747 393
Q 3808 269 3913 192
Q 4019 115 4179 115
Q 4339 115 4441 192
Q 4544 269 4608 393
Q 4672 518 4697 675
Q 4723 832 4723 992
Q 4723 1152 4697 1315
Q 4672 1478 4608 1603
Q 4544 1728 4441 1808
Q 4339 1888 4179 1888
z
" transform="scale(0.015625)"/>
       <path id="NanumBarunGothic-11" d="M 1939 2029
Q 1939 1619 1843 1206
Q 1747 794 1577 406
Q 1408 19 1177 -329
Q 947 -678 678 -960
L 256 -960
Q 800 -205 1072 553
Q 1344 1312 1344 2029
Q 1344 2746 1072 3504
Q 800 4262 256 5018
L 678 5018
Q 947 4736 1177 4387
Q 1408 4038 1577 3651
Q 1747 3264 1843 2851
Q 1939 2438 1939 2029
z
" transform="scale(0.015625)"/>
      </defs>
      <use xlink:href="#NanumBarunGothic-385c"/>
      <use xlink:href="#NanumBarunGothic-3808" transform="translate(89.203125 0)"/>
      <use xlink:href="#NanumBarunGothic-8" transform="translate(178.40625 0)"/>
      <use xlink:href="#NanumBarunGothic-1700" transform="translate(200.8125 0)"/>
      <use xlink:href="#NanumBarunGothic-3285" transform="translate(290.015625 0)"/>
      <use xlink:href="#NanumBarunGothic-3290" transform="translate(379.21875 0)"/>
      <use xlink:href="#NanumBarunGothic-8" transform="translate(468.421875 0)"/>
      <use xlink:href="#NanumBarunGothic-3411" transform="translate(490.828125 0)"/>
      <use xlink:href="#NanumBarunGothic-8" transform="translate(580.03125 0)"/>
      <use xlink:href="#NanumBarunGothic-3294" transform="translate(602.4375 0)"/>
      <use xlink:href="#NanumBarunGothic-3374" transform="translate(691.640625 0)"/>
      <use xlink:href="#NanumBarunGothic-8" transform="translate(780.84375 0)"/>
      <use xlink:href="#NanumBarunGothic-2944" transform="translate(803.25 0)"/>
      <use xlink:href="#NanumBarunGothic-3228" transform="translate(892.453125 0)"/>
      <use xlink:href="#NanumBarunGothic-8" transform="translate(981.65625 0)"/>
      <use xlink:href="#NanumBarunGothic-10" transform="translate(1004.0625 0)"/>
      <use xlink:href="#NanumBarunGothic-d" transform="translate(1048.65625 0)"/>
      <use xlink:href="#NanumBarunGothic-11" transform="translate(1137.859375 0)"/>
     </g>
    </g>
   </g>
   <g id="line2d_23">
    <path d="M 100.891636 43.68
L 150.375273 51.31392
L 199.858909 67.478746
L 249.342545 88.310587
L 298.826182 108.285317
L 348.309818 124.811012
L 397.793455 137.090473
L 447.277091 147.10579
L 496.760727 155.078709
L 546.244364 161.818257
" clip-path="url(#p72b0a17b93)" style="fill: none; stroke: #235f9a; stroke-width: 2.2; stroke-linecap: square"/>
    <defs>
     <path id="m34496c4036" d="M 0 3
C 0.795609 3 1.55874 2.683901 2.12132 2.12132
C 2.683901 1.55874 3 0.795609 3 0
C 3 -0.795609 2.683901 -1.55874 2.12132 -2.12132
C 1.55874 -2.683901 0.795609 -3 0 -3
C -0.795609 -3 -1.55874 -2.683901 -2.12132 -2.12132
C -2.683901 -1.55874 -3 -0.795609 -3 0
C -3 0.795609 -2.683901 1.55874 -2.12132 2.12132
C -1.55874 2.683901 -0.795609 3 0 3
z
" style="stroke: #235f9a"/>
    </defs>
    <g clip-path="url(#p72b0a17b93)">
     <use xlink:href="#m34496c4036" x="100.891636" y="43.68" style="fill: #235f9a; stroke: #235f9a"/>
     <use xlink:href="#m34496c4036" x="150.375273" y="51.31392" style="fill: #235f9a; stroke: #235f9a"/>
     <use xlink:href="#m34496c4036" x="199.858909" y="67.478746" style="fill: #235f9a; stroke: #235f9a"/>
     <use xlink:href="#m34496c4036" x="249.342545" y="88.310587" style="fill: #235f9a; stroke: #235f9a"/>
     <use xlink:href="#m34496c4036" x="298.826182" y="108.285317" style="fill: #235f9a; stroke: #235f9a"/>
     <use xlink:href="#m34496c4036" x="348.309818" y="124.811012" style="fill: #235f9a; stroke: #235f9a"/>
     <use xlink:href="#m34496c4036" x="397.793455" y="137.090473" style="fill: #235f9a; stroke: #235f9a"/>
     <use xlink:href="#m34496c4036" x="447.277091" y="147.10579" style="fill: #235f9a; stroke: #235f9a"/>
     <use xlink:href="#m34496c4036" x="496.760727" y="155.078709" style="fill: #235f9a; stroke: #235f9a"/>
     <use xlink:href="#m34496c4036" x="546.244364" y="161.818257" style="fill: #235f9a; stroke: #235f9a"/>
    </g>
   </g>
   <g id="line2d_24">
    <path d="M 100.891636 43.68
L 150.375273 63.71904
L 199.858909 90.378597
L 249.342545 121.460144
L 298.826182 146.220242
L 348.309818 164.44689
L 397.793455 178.582063
L 447.277091 190.088094
L 496.760727 198.934677
L 546.244364 206.098935
" clip-path="url(#p72b0a17b93)" style="fill: none; stroke: #a44e2c; stroke-width: 2.2; stroke-linecap: square"/>
    <defs>
     <path id="m0eaa15f0aa" d="M 0 3
C 0.795609 3 1.55874 2.683901 2.12132 2.12132
C 2.683901 1.55874 3 0.795609 3 0
C 3 -0.795609 2.683901 -1.55874 2.12132 -2.12132
C 1.55874 -2.683901 0.795609 -3 0 -3
C -0.795609 -3 -1.55874 -2.683901 -2.12132 -2.12132
C -2.683901 -1.55874 -3 -0.795609 -3 0
C -3 0.795609 -2.683901 1.55874 -2.12132 2.12132
C -1.55874 2.683901 -0.795609 3 0 3
z
" style="stroke: #a44e2c"/>
    </defs>
    <g clip-path="url(#p72b0a17b93)">
     <use xlink:href="#m0eaa15f0aa" x="100.891636" y="43.68" style="fill: #a44e2c; stroke: #a44e2c"/>
     <use xlink:href="#m0eaa15f0aa" x="150.375273" y="63.71904" style="fill: #a44e2c; stroke: #a44e2c"/>
     <use xlink:href="#m0eaa15f0aa" x="199.858909" y="90.378597" style="fill: #a44e2c; stroke: #a44e2c"/>
     <use xlink:href="#m0eaa15f0aa" x="249.342545" y="121.460144" style="fill: #a44e2c; stroke: #a44e2c"/>
     <use xlink:href="#m0eaa15f0aa" x="298.826182" y="146.220242" style="fill: #a44e2c; stroke: #a44e2c"/>
     <use xlink:href="#m0eaa15f0aa" x="348.309818" y="164.44689" style="fill: #a44e2c; stroke: #a44e2c"/>
     <use xlink:href="#m0eaa15f0aa" x="397.793455" y="178.582063" style="fill: #a44e2c; stroke: #a44e2c"/>
     <use xlink:href="#m0eaa15f0aa" x="447.277091" y="190.088094" style="fill: #a44e2c; stroke: #a44e2c"/>
     <use xlink:href="#m0eaa15f0aa" x="496.760727" y="198.934677" style="fill: #a44e2c; stroke: #a44e2c"/>
     <use xlink:href="#m0eaa15f0aa" x="546.244364" y="206.098935" style="fill: #a44e2c; stroke: #a44e2c"/>
    </g>
   </g>
   <g id="patch_3">
    <path d="M 78.624 282.24
L 78.624 31.752
" style="fill: none; stroke: #a5adb5; stroke-width: 0.8; stroke-linejoin: miter; stroke-linecap: square"/>
   </g>
   <g id="patch_4">
    <path d="M 78.624 282.24
L 568.512 282.24
" style="fill: none; stroke: #a5adb5; stroke-width: 0.8; stroke-linejoin: miter; stroke-linecap: square"/>
   </g>
   <g id="text_19">
    <!-- 0년의 100%에서 출발해, 매년 남는 확률을 곱한다. -->
    <g style="fill: #626b73" transform="translate(78.624 349.20224) scale(0.11 -0.11)">
     <defs>
      <path id="NanumBarunGothic-1c44" d="M 2803 3834
L 2803 4288
L 4448 4288
L 4448 4992
L 4998 4992
L 4998 762
L 4448 762
L 4448 2765
L 2803 2765
L 2803 3226
L 4454 3226
L 4454 3834
L 2803 3834
z
M 1766 1638
L 538 1638
L 538 4774
L 1107 4774
L 1107 2125
L 1843 2125
Q 2490 2125 3027 2208
Q 3565 2291 3904 2368
L 3904 1894
Q 3718 1843 3468 1798
Q 3219 1754 2937 1718
Q 2656 1683 2355 1660
Q 2054 1638 1766 1638
z
M 5126 -736
L 1350 -736
L 1350 1037
L 1907 1037
L 1907 -256
L 5126 -256
L 5126 -736
z
" transform="scale(0.015625)"/>
      <path id="NanumBarunGothic-3258" d="M 3622 3162
Q 3622 2848 3516 2576
Q 3411 2304 3216 2105
Q 3021 1907 2739 1795
Q 2458 1683 2112 1683
Q 1766 1683 1484 1795
Q 1203 1907 1008 2105
Q 813 2304 707 2576
Q 602 2848 602 3162
Q 602 3475 707 3747
Q 813 4019 1008 4217
Q 1203 4416 1484 4528
Q 1766 4640 2112 4640
Q 2458 4640 2739 4528
Q 3021 4416 3216 4217
Q 3411 4019 3516 3747
Q 3622 3475 3622 3162
z
M 3053 3162
Q 3053 3622 2800 3891
Q 2547 4160 2112 4160
Q 1677 4160 1424 3891
Q 1171 3622 1171 3162
Q 1171 2701 1424 2432
Q 1677 2163 2112 2163
Q 2547 2163 2800 2432
Q 3053 2701 3053 3162
z
M 5152 -851
L 4621 -851
L 4621 4992
L 5152 4992
L 5152 -851
z
M 218 858
L 1389 858
Q 1709 858 2093 867
Q 2477 877 2870 896
Q 3264 915 3638 947
Q 4013 979 4320 1018
L 4320 557
Q 4013 512 3645 480
Q 3277 448 2889 425
Q 2502 403 2118 390
Q 1734 378 1395 378
L 218 378
L 218 858
z
" transform="scale(0.015625)"/>
      <path id="NanumBarunGothic-30d0" d="M 5094 -851
L 4544 -851
L 4544 4992
L 5094 4992
L 5094 -851
z
M 3354 4928
L 3904 4928
L 3904 -704
L 3354 -704
L 3354 2458
L 2720 2458
Q 2701 1491 2374 992
Q 2048 493 1485 493
Q 922 493 595 1021
Q 269 1549 269 2560
Q 269 3571 595 4099
Q 922 4627 1485 4627
Q 2003 4627 2323 4198
Q 2643 3770 2707 2938
L 3354 2938
L 3354 4928
z
M 2182 2560
Q 2182 2912 2144 3206
Q 2106 3501 2022 3712
Q 1939 3923 1804 4038
Q 1670 4154 1478 4154
Q 1293 4154 1165 4038
Q 1037 3923 960 3712
Q 883 3501 848 3206
Q 813 2912 813 2560
Q 813 2208 848 1913
Q 883 1619 960 1408
Q 1037 1197 1165 1081
Q 1293 966 1478 966
Q 1670 966 1804 1081
Q 1939 1197 2022 1408
Q 2106 1619 2144 1913
Q 2182 2208 2182 2560
z
" transform="scale(0.015625)"/>
      <path id="NanumBarunGothic-2c1c" d="M 3142 2509
L 3142 2989
L 4448 2989
L 4448 4992
L 4998 4992
L 4998 -851
L 4448 -851
L 4448 2509
L 3142 2509
z
M 384 429
L -13 781
Q 378 1062 710 1427
Q 1043 1792 1273 2262
Q 1504 2733 1616 3321
Q 1728 3910 1677 4634
L 2259 4634
Q 2272 4211 2233 3833
Q 2195 3456 2125 3110
Q 2355 2451 2777 1904
Q 3200 1357 3782 966
L 3424 557
Q 2944 896 2563 1360
Q 2182 1824 1914 2406
Q 1670 1779 1283 1289
Q 896 800 384 429
z
" transform="scale(0.015625)"/>
      <path id="NanumBarunGothic-389c" d="M 1702 5069
L 3776 5069
L 3776 4627
L 1702 4627
L 1702 5069
z
M 947 4352
L 2726 4352
Q 3130 4352 3530 4352
Q 3930 4352 4371 4365
Q 4442 4358 4470 4297
Q 4499 4237 4467 4186
Q 4339 3974 4089 3776
Q 3840 3578 3501 3398
Q 4256 3155 5165 3027
L 4909 2624
Q 4410 2701 3920 2838
Q 3430 2976 2989 3155
Q 2464 2938 1885 2797
Q 1306 2656 787 2605
L 557 3002
Q 1037 3046 1494 3142
Q 1952 3238 2355 3366
Q 2758 3494 3084 3641
Q 3411 3789 3635 3942
Q 3277 3930 2925 3923
Q 2573 3917 2221 3917
L 947 3917
L 947 4352
z
M 2560 1434
L 2560 1978
L 70 1978
L 70 2419
L 5638 2419
L 5638 1978
L 3130 1978
L 3130 1434
L 4742 1434
L 4742 96
L 1510 96
L 1510 -397
L 4896 -397
L 4896 -851
L 966 -851
L 966 525
L 4198 525
L 4198 979
L 966 979
L 966 1434
L 2560 1434
z
" transform="scale(0.015625)"/>
      <path id="NanumBarunGothic-271c" d="M 378 2272
L 378 4819
L 934 4819
L 934 3968
L 2509 3968
L 2509 4819
L 3059 4819
L 3059 2272
L 378 2272
z
M 2509 3507
L 934 3507
L 934 2746
L 2509 2746
L 2509 3507
z
M 5645 3283
L 4723 3283
L 4723 2061
L 4173 2061
L 4173 4992
L 4723 4992
L 4723 3770
L 5645 3770
L 5645 3283
z
M 4851 -787
L 1094 -787
L 1094 730
L 4179 730
L 4179 1261
L 1094 1261
L 1094 1728
L 4723 1728
L 4723 275
L 1638 275
L 1638 -320
L 4851 -320
L 4851 -787
z
" transform="scale(0.015625)"/>
      <path id="NanumBarunGothic-4074" d="M 134 3315
L 134 3802
L 2880 3802
L 2880 3315
L 134 3315
z
M 781 4256
L 781 4742
L 2368 4742
L 2368 4256
L 781 4256
z
M 5094 -851
L 4544 -851
L 4544 2138
L 3866 2138
L 3866 -704
L 3328 -704
L 3328 4928
L 3866 4928
L 3866 2611
L 4544 2611
L 4544 4992
L 5094 4992
L 5094 -851
z
M 346 1677
Q 346 1952 438 2182
Q 531 2413 694 2579
Q 858 2746 1082 2838
Q 1306 2931 1568 2931
Q 1830 2931 2054 2838
Q 2278 2746 2444 2579
Q 2611 2413 2707 2182
Q 2803 1952 2803 1677
Q 2803 1408 2707 1177
Q 2611 947 2444 784
Q 2278 621 2054 528
Q 1830 435 1568 435
Q 1306 435 1082 528
Q 858 621 694 784
Q 531 947 438 1177
Q 346 1408 346 1677
z
M 877 1677
Q 877 1325 1069 1120
Q 1261 915 1568 915
Q 1875 915 2070 1120
Q 2266 1325 2266 1677
Q 2266 2035 2070 2240
Q 1875 2445 1568 2445
Q 1261 2445 1069 2240
Q 877 2035 877 1677
z
" transform="scale(0.015625)"/>
      <path id="NanumBarunGothic-14" d="M 410 186
Q 410 358 531 473
Q 653 589 858 589
Q 1062 589 1193 435
Q 1325 282 1325 58
Q 1325 -147 1257 -323
Q 1190 -499 1078 -646
Q 966 -794 816 -902
Q 666 -1011 493 -1069
L 378 -826
Q 563 -755 691 -624
Q 819 -493 870 -326
Q 890 -250 877 -218
Q 864 -186 794 -186
Q 646 -186 528 -74
Q 410 38 410 186
z
" transform="scale(0.015625)"/>
      <path id="NanumBarunGothic-24e4" d="M 2669 762
L 435 762
L 435 4486
L 2669 4486
L 2669 762
z
M 2138 1229
L 2138 4026
L 973 4026
L 973 1229
L 2138 1229
z
M 5094 -851
L 4544 -851
L 4544 2458
L 3878 2458
L 3878 -704
L 3341 -704
L 3341 4928
L 3878 4928
L 3878 2931
L 4544 2931
L 4544 4992
L 5094 4992
L 5094 -851
z
" transform="scale(0.015625)"/>
      <path id="NanumBarunGothic-1ba8" d="M 1690 2099
L 403 2099
L 403 4800
L 973 4800
L 973 2579
L 1766 2579
Q 2413 2579 2950 2662
Q 3488 2746 3827 2822
L 3827 2355
Q 3642 2304 3392 2259
Q 3142 2214 2860 2179
Q 2579 2144 2278 2121
Q 1978 2099 1690 2099
z
M 5645 3085
L 4723 3085
L 4723 1715
L 4173 1715
L 4173 4992
L 4723 4992
L 4723 3571
L 5645 3571
L 5645 3085
z
M 4723 -762
L 1139 -762
L 1139 1382
L 4723 1382
L 4723 -762
z
M 4173 896
L 1690 896
L 1690 -282
L 4173 -282
L 4173 896
z
" transform="scale(0.015625)"/>
      <path id="NanumBarunGothic-1d94" d="M 998 4973
L 1562 4973
L 1562 3373
L 4813 3373
L 4813 2906
L 998 2906
L 998 4973
z
M 5638 2067
L 5638 1594
L 70 1594
L 70 2067
L 5638 2067
z
M 4851 -762
L 979 -762
L 979 1043
L 1530 1043
L 1530 -282
L 4851 -282
L 4851 -762
z
" transform="scale(0.015625)"/>
      <path id="NanumBarunGothic-4155" d="M 4250 1075
L 4250 4992
L 4800 4992
L 4800 2989
L 5645 2989
L 5645 2502
L 4800 2502
L 4800 1075
L 4250 1075
z
M 2362 2080
L 2362 1664
Q 2797 1683 3213 1715
Q 3629 1747 3968 1792
L 3968 1357
Q 3661 1312 3293 1280
Q 2925 1248 2537 1225
Q 2150 1203 1766 1190
Q 1382 1178 1043 1178
L 96 1178
L 96 1632
L 1037 1632
Q 1210 1632 1398 1635
Q 1587 1638 1792 1645
L 1792 2074
Q 1210 2118 915 2329
Q 621 2541 621 2848
Q 621 3187 976 3401
Q 1331 3616 2042 3616
Q 2739 3616 3094 3401
Q 3450 3187 3450 2848
Q 3450 2554 3178 2342
Q 2906 2131 2362 2080
z
M 4250 -870
L 4250 275
L 1024 275
L 1024 742
L 4800 742
L 4800 -870
L 4250 -870
z
M 282 3846
L 282 4275
L 3821 4275
L 3821 3846
L 282 3846
z
M 1037 4576
L 1037 5011
L 3066 5011
L 3066 4576
L 1037 4576
z
M 2906 2842
Q 2906 2989 2701 3107
Q 2496 3226 2042 3226
Q 1587 3226 1376 3107
Q 1165 2989 1165 2842
Q 1165 2701 1376 2582
Q 1587 2464 2042 2464
Q 2496 2464 2701 2582
Q 2906 2701 2906 2842
z
" transform="scale(0.015625)"/>
      <path id="NanumBarunGothic-2460" d="M 992 4851
L 4672 4851
L 4672 3539
L 1542 3539
L 1542 3104
L 4813 3104
L 4813 2669
L 992 2669
L 992 3962
L 4128 3962
L 4128 4390
L 992 4390
L 992 4851
z
M 3443 1357
L 3443 1856
L 2259 1856
L 2259 1357
L 3443 1357
z
M 1702 1357
L 1702 1850
L 70 1850
L 70 2291
L 5638 2291
L 5638 1850
L 4000 1850
L 4000 1357
L 4742 1357
L 4742 38
L 1510 38
L 1510 -397
L 4896 -397
L 4896 -851
L 966 -851
L 966 474
L 4198 474
L 4198 902
L 966 902
L 966 1357
L 1702 1357
z
" transform="scale(0.015625)"/>
      <path id="NanumBarunGothic-3244" d="M 4800 3968
Q 4800 3507 4317 3219
Q 3834 2931 2861 2931
Q 1888 2931 1405 3219
Q 922 3507 922 3968
Q 922 4192 1043 4387
Q 1165 4582 1408 4726
Q 1651 4870 2016 4950
Q 2381 5030 2861 5030
Q 3341 5030 3705 4950
Q 4070 4870 4313 4726
Q 4557 4582 4678 4390
Q 4800 4198 4800 3968
z
M 4198 3942
Q 4198 4064 4118 4182
Q 4038 4301 3875 4387
Q 3712 4474 3459 4528
Q 3206 4582 2861 4582
Q 2509 4582 2253 4528
Q 1997 4474 1833 4387
Q 1670 4301 1593 4182
Q 1517 4064 1517 3942
Q 1517 3827 1593 3724
Q 1670 3622 1833 3545
Q 1997 3469 2253 3421
Q 2509 3373 2861 3373
Q 3206 3373 3459 3421
Q 3712 3469 3875 3545
Q 4038 3622 4118 3724
Q 4198 3827 4198 3942
z
M 5638 2554
L 5638 2099
L 70 2099
L 70 2554
L 5638 2554
z
M 966 -851
L 966 595
L 4198 595
L 4198 1139
L 966 1139
L 966 1594
L 4742 1594
L 4742 160
L 1510 160
L 1510 -397
L 4896 -397
L 4896 -851
L 966 -851
z
" transform="scale(0.015625)"/>
      <path id="NanumBarunGothic-17f1" d="M 845 4832
L 4717 4832
Q 4704 4250 4653 3757
Q 4602 3264 4544 2918
L 4000 2918
Q 4064 3283 4105 3635
Q 4147 3987 4160 4352
L 845 4352
L 845 4832
z
M 2714 3642
L 2714 2515
L 5638 2515
L 5638 2042
L 70 2042
L 70 2515
L 2144 2515
L 2144 3642
L 2714 3642
z
M 973 -762
L 973 1626
L 1523 1626
L 1523 973
L 4186 973
L 4186 1626
L 4736 1626
L 4736 -762
L 973 -762
z
M 4192 512
L 1517 512
L 1517 -288
L 4192 -288
L 4192 512
z
" transform="scale(0.015625)"/>
      <path id="NanumBarunGothic-405c" d="M 115 3648
L 115 4109
L 3584 4109
L 3584 3648
L 115 3648
z
M 864 4486
L 864 4947
L 2842 4947
L 2842 4486
L 864 4486
z
M 1843 1229
Q 1478 1229 1209 1315
Q 941 1402 765 1549
Q 589 1696 502 1888
Q 416 2080 416 2291
Q 416 2502 502 2691
Q 589 2880 765 3027
Q 941 3174 1209 3260
Q 1478 3347 1843 3347
Q 2208 3347 2477 3260
Q 2746 3174 2922 3027
Q 3098 2880 3184 2691
Q 3270 2502 3270 2291
Q 3270 2080 3184 1888
Q 3098 1696 2922 1549
Q 2746 1402 2477 1315
Q 2208 1229 1843 1229
z
M 1843 1677
Q 2080 1677 2246 1728
Q 2413 1779 2518 1865
Q 2624 1952 2672 2064
Q 2720 2176 2720 2291
Q 2720 2406 2672 2515
Q 2624 2624 2518 2710
Q 2413 2797 2246 2851
Q 2080 2906 1843 2906
Q 1606 2906 1440 2851
Q 1274 2797 1168 2710
Q 1062 2624 1014 2515
Q 966 2406 966 2291
Q 966 2176 1014 2064
Q 1062 1952 1168 1865
Q 1274 1779 1440 1728
Q 1606 1677 1843 1677
z
M 5645 2502
L 4723 2502
L 4723 480
L 4173 480
L 4173 4992
L 4723 4992
L 4723 2989
L 5645 2989
L 5645 2502
z
M 4851 -736
L 1139 -736
L 1139 666
L 1696 666
L 1696 -256
L 4851 -256
L 4851 -736
z
" transform="scale(0.015625)"/>
      <path id="NanumBarunGothic-1de4" d="M 5696 2278
L 4691 2278
L 4691 -851
L 4141 -851
L 4141 4992
L 4691 4992
L 4691 2758
L 5696 2758
L 5696 2278
z
M 448 4493
L 3149 4493
L 3149 4026
L 1011 4026
L 1011 1133
L 1651 1133
Q 2298 1133 2835 1216
Q 3373 1299 3712 1370
L 3712 902
Q 3526 851 3276 806
Q 3027 762 2745 726
Q 2464 691 2163 668
Q 1862 646 1574 646
L 448 646
L 448 4493
z
" transform="scale(0.015625)"/>
      <path id="NanumBarunGothic-16" d="M 832 531
Q 1024 531 1145 409
Q 1267 288 1267 102
Q 1267 -83 1145 -204
Q 1024 -326 832 -326
Q 640 -326 518 -204
Q 397 -83 397 102
Q 397 288 518 409
Q 640 531 832 531
z
" transform="scale(0.015625)"/>
     </defs>
     <use xlink:href="#NanumBarunGothic-18"/>
     <use xlink:href="#NanumBarunGothic-1c44" transform="translate(58.296875 0)"/>
     <use xlink:href="#NanumBarunGothic-3258" transform="translate(147.5 0)"/>
     <use xlink:href="#NanumBarunGothic-8" transform="translate(236.703125 0)"/>
     <use xlink:href="#NanumBarunGothic-19" transform="translate(259.109375 0)"/>
     <use xlink:href="#NanumBarunGothic-18" transform="translate(317.40625 0)"/>
     <use xlink:href="#NanumBarunGothic-18" transform="translate(375.703125 0)"/>
     <use xlink:href="#NanumBarunGothic-d" transform="translate(434 0)"/>
     <use xlink:href="#NanumBarunGothic-30d0" transform="translate(523.203125 0)"/>
     <use xlink:href="#NanumBarunGothic-2c1c" transform="translate(612.40625 0)"/>
     <use xlink:href="#NanumBarunGothic-8" transform="translate(701.609375 0)"/>
     <use xlink:href="#NanumBarunGothic-389c" transform="translate(724.015625 0)"/>
     <use xlink:href="#NanumBarunGothic-271c" transform="translate(813.21875 0)"/>
     <use xlink:href="#NanumBarunGothic-4074" transform="translate(902.421875 0)"/>
     <use xlink:href="#NanumBarunGothic-14" transform="translate(991.625 0)"/>
     <use xlink:href="#NanumBarunGothic-8" transform="translate(1021.328125 0)"/>
     <use xlink:href="#NanumBarunGothic-24e4" transform="translate(1043.734375 0)"/>
     <use xlink:href="#NanumBarunGothic-1c44" transform="translate(1132.9375 0)"/>
     <use xlink:href="#NanumBarunGothic-8" transform="translate(1222.140625 0)"/>
     <use xlink:href="#NanumBarunGothic-1ba8" transform="translate(1244.546875 0)"/>
     <use xlink:href="#NanumBarunGothic-1d94" transform="translate(1333.75 0)"/>
     <use xlink:href="#NanumBarunGothic-8" transform="translate(1422.953125 0)"/>
     <use xlink:href="#NanumBarunGothic-4155" transform="translate(1445.359375 0)"/>
     <use xlink:href="#NanumBarunGothic-2460" transform="translate(1534.5625 0)"/>
     <use xlink:href="#NanumBarunGothic-3244" transform="translate(1623.765625 0)"/>
     <use xlink:href="#NanumBarunGothic-8" transform="translate(1712.96875 0)"/>
     <use xlink:href="#NanumBarunGothic-17f1" transform="translate(1735.375 0)"/>
     <use xlink:href="#NanumBarunGothic-405c" transform="translate(1824.578125 0)"/>
     <use xlink:href="#NanumBarunGothic-1de4" transform="translate(1913.78125 0)"/>
     <use xlink:href="#NanumBarunGothic-16" transform="translate(2002.984375 0)"/>
    </g>
   </g>
   <g id="legend_1">
    <g id="line2d_25">
     <path d="M 89.424 243.84
L 101.424 243.84
L 113.424 243.84
" style="fill: none; stroke: #235f9a; stroke-width: 2.2; stroke-linecap: square"/>
     <g>
      <use xlink:href="#m34496c4036" x="101.424" y="243.84" style="fill: #235f9a; stroke: #235f9a"/>
     </g>
    </g>
    <g id="text_20">
     <!-- 자동이체 사용 -->
     <g style="fill: #26323d" transform="translate(123.024 248.04) scale(0.12 -0.12)">
      <defs>
       <path id="NanumBarunGothic-1ed9" d="M 5638 1645
L 58 1645
L 58 2118
L 2566 2118
L 2566 2867
L 986 2867
L 986 4832
L 4730 4832
L 4730 4352
L 1555 4352
L 1555 3328
L 4813 3328
L 4813 2867
L 3130 2867
L 3130 2118
L 5638 2118
L 5638 1645
z
M 4845 186
Q 4845 -294 4339 -604
Q 3834 -915 2854 -915
Q 2362 -915 1987 -832
Q 1613 -749 1360 -605
Q 1107 -461 979 -259
Q 851 -58 851 186
Q 851 666 1356 963
Q 1862 1261 2854 1261
Q 3840 1261 4342 963
Q 4845 666 4845 186
z
M 4250 192
Q 4250 307 4179 419
Q 4109 531 3945 617
Q 3782 704 3513 758
Q 3245 813 2854 813
Q 2458 813 2189 758
Q 1920 704 1757 617
Q 1594 531 1523 419
Q 1453 307 1453 192
Q 1453 70 1523 -42
Q 1594 -154 1757 -243
Q 1920 -333 2189 -387
Q 2458 -442 2854 -442
Q 3245 -442 3513 -387
Q 3782 -333 3945 -243
Q 4109 -154 4179 -42
Q 4250 70 4250 192
z
" transform="scale(0.015625)"/>
       <path id="NanumBarunGothic-3274" d="M 4448 4992
L 4998 4992
L 4998 -851
L 4448 -851
L 4448 4992
z
M 3341 2566
Q 3341 2054 3225 1660
Q 3110 1267 2908 1004
Q 2707 742 2432 608
Q 2157 474 1843 474
Q 1530 474 1258 608
Q 986 742 781 1004
Q 576 1267 457 1660
Q 339 2054 339 2566
Q 339 3078 457 3468
Q 576 3859 781 4121
Q 986 4384 1258 4518
Q 1530 4653 1843 4653
Q 2157 4653 2432 4518
Q 2707 4384 2908 4121
Q 3110 3859 3225 3468
Q 3341 3078 3341 2566
z
M 2784 2566
Q 2784 2925 2720 3219
Q 2656 3514 2537 3725
Q 2419 3936 2243 4051
Q 2067 4166 1843 4166
Q 1619 4166 1443 4051
Q 1267 3936 1148 3725
Q 1030 3514 966 3219
Q 902 2925 902 2566
Q 902 2208 966 1913
Q 1030 1619 1148 1408
Q 1267 1197 1443 1078
Q 1619 960 1843 960
Q 2067 960 2243 1078
Q 2419 1197 2537 1408
Q 2656 1619 2720 1913
Q 2784 2208 2784 2566
z
" transform="scale(0.015625)"/>
       <path id="NanumBarunGothic-37b4" d="M 5094 -851
L 4550 -851
L 4550 4992
L 5094 4992
L 5094 -851
z
M 3379 4928
L 3923 4928
L 3923 -704
L 3379 -704
L 3379 2112
L 2637 2112
L 2637 2586
L 3379 2586
L 3379 4928
z
M 755 4288
L 755 4762
L 2304 4762
L 2304 4288
L 755 4288
z
M 2048 2125
Q 2266 1754 2547 1453
Q 2829 1152 3187 896
L 2778 525
Q 2464 768 2214 1056
Q 1965 1344 1773 1670
Q 1504 1280 1165 941
Q 826 602 422 326
L 6 691
Q 397 909 742 1238
Q 1088 1568 1347 1936
Q 1606 2304 1766 2678
Q 1926 3053 1946 3360
Q 1651 3347 1382 3344
Q 1114 3341 826 3341
L 339 3341
L 339 3802
L 1088 3802
Q 1427 3802 1769 3802
Q 2112 3802 2566 3814
Q 2496 2944 2048 2125
z
" transform="scale(0.015625)"/>
       <path id="NanumBarunGothic-2bac" d="M 5696 2202
L 4691 2202
L 4691 -851
L 4141 -851
L 4141 4992
L 4691 4992
L 4691 2688
L 5696 2688
L 5696 2202
z
M 320 429
L -77 781
Q 314 1062 646 1427
Q 979 1792 1209 2262
Q 1440 2733 1552 3321
Q 1664 3910 1613 4634
L 2195 4634
Q 2208 4211 2169 3833
Q 2131 3456 2061 3110
Q 2291 2451 2713 1904
Q 3136 1357 3718 966
L 3360 557
Q 2880 896 2499 1360
Q 2118 1824 1850 2406
Q 1606 1779 1219 1289
Q 832 800 320 429
z
" transform="scale(0.015625)"/>
       <path id="NanumBarunGothic-31a9" d="M 4787 3891
Q 4787 3610 4627 3382
Q 4467 3155 4141 3008
L 4141 2061
L 5638 2061
L 5638 1594
L 70 1594
L 70 2061
L 1562 2061
L 1562 3014
Q 1235 3162 1078 3386
Q 922 3610 922 3891
Q 922 4128 1043 4336
Q 1165 4544 1408 4697
Q 1651 4851 2012 4940
Q 2374 5030 2854 5030
Q 3334 5030 3696 4940
Q 4058 4851 4301 4697
Q 4544 4544 4665 4336
Q 4787 4128 4787 3891
z
M 3584 2842
Q 3258 2784 2854 2784
Q 2432 2784 2118 2848
L 2118 2054
L 3584 2054
L 3584 2842
z
M 4864 179
Q 4864 -51 4739 -249
Q 4614 -448 4364 -592
Q 4115 -736 3744 -819
Q 3373 -902 2886 -902
Q 2394 -902 2022 -819
Q 1651 -736 1401 -592
Q 1152 -448 1024 -249
Q 896 -51 896 179
Q 896 410 1024 598
Q 1152 787 1401 928
Q 1651 1069 2022 1145
Q 2394 1222 2886 1222
Q 3373 1222 3744 1145
Q 4115 1069 4364 928
Q 4614 787 4739 598
Q 4864 410 4864 179
z
M 4262 173
Q 4262 282 4195 390
Q 4128 499 3965 585
Q 3802 672 3536 726
Q 3270 781 2880 781
Q 2483 781 2217 726
Q 1952 672 1789 585
Q 1626 499 1558 390
Q 1491 282 1491 173
Q 1491 64 1558 -45
Q 1626 -154 1789 -240
Q 1952 -326 2217 -380
Q 2483 -435 2880 -435
Q 3270 -435 3536 -380
Q 3802 -326 3965 -240
Q 4128 -154 4195 -45
Q 4262 64 4262 173
z
M 4205 3866
Q 4205 4006 4125 4134
Q 4045 4262 3878 4361
Q 3712 4461 3456 4521
Q 3200 4582 2854 4582
Q 2502 4582 2249 4521
Q 1997 4461 1833 4361
Q 1670 4262 1590 4134
Q 1510 4006 1510 3866
Q 1510 3738 1590 3622
Q 1670 3507 1833 3417
Q 1997 3328 2249 3273
Q 2502 3219 2854 3219
Q 3200 3219 3456 3273
Q 3712 3328 3878 3417
Q 4045 3507 4125 3622
Q 4205 3738 4205 3866
z
" transform="scale(0.015625)"/>
      </defs>
      <use xlink:href="#NanumBarunGothic-3290"/>
      <use xlink:href="#NanumBarunGothic-1ed9" transform="translate(89.203125 0)"/>
      <use xlink:href="#NanumBarunGothic-3274" transform="translate(178.40625 0)"/>
      <use xlink:href="#NanumBarunGothic-37b4" transform="translate(267.609375 0)"/>
      <use xlink:href="#NanumBarunGothic-8" transform="translate(356.8125 0)"/>
      <use xlink:href="#NanumBarunGothic-2bac" transform="translate(379.21875 0)"/>
      <use xlink:href="#NanumBarunGothic-31a9" transform="translate(468.421875 0)"/>
     </g>
    </g>
    <g id="line2d_26">
     <path d="M 89.424 263.64
L 101.424 263.64
L 113.424 263.64
" style="fill: none; stroke: #a44e2c; stroke-width: 2.2; stroke-linecap: square"/>
     <g>
      <use xlink:href="#m0eaa15f0aa" x="101.424" y="263.64" style="fill: #a44e2c; stroke: #a44e2c"/>
     </g>
    </g>
    <g id="text_21">
     <!-- 자동이체 미사용 -->
     <g style="fill: #26323d" transform="translate(123.024 267.84) scale(0.12 -0.12)">
      <defs>
       <path id="NanumBarunGothic-26f8" d="M 4448 4992
L 4998 4992
L 4998 -851
L 4448 -851
L 4448 4992
z
M 3117 755
L 506 755
L 506 4493
L 3117 4493
L 3117 755
z
M 2573 1222
L 2573 4032
L 1069 4032
L 1069 1222
L 2573 1222
z
" transform="scale(0.015625)"/>
      </defs>
      <use xlink:href="#NanumBarunGothic-3290"/>
      <use xlink:href="#NanumBarunGothic-1ed9" transform="translate(89.203125 0)"/>
      <use xlink:href="#NanumBarunGothic-3274" transform="translate(178.40625 0)"/>
      <use xlink:href="#NanumBarunGothic-37b4" transform="translate(267.609375 0)"/>
      <use xlink:href="#NanumBarunGothic-8" transform="translate(356.8125 0)"/>
      <use xlink:href="#NanumBarunGothic-26f8" transform="translate(379.21875 0)"/>
      <use xlink:href="#NanumBarunGothic-2bac" transform="translate(468.421875 0)"/>
      <use xlink:href="#NanumBarunGothic-31a9" transform="translate(557.625 0)"/>
     </g>
    </g>
   </g>
  </g>
 </g>
 <defs>
  <clipPath id="p72b0a17b93">
   <rect x="78.624" y="31.752" width="489.888" height="250.488"/>
  </clipPath>
 </defs>
</svg>
